<?xml version="1.0" encoding="UTF-8"?>
<svg version="1.1" xmlns="http://www.w3.org/2000/svg" width="150" height="150">
<path d="M0 0 C49.5 0 99 0 150 0 C150 49.5 150 99 150 150 C100.5 150 51 150 0 150 C0 100.5 0 51 0 0 Z " fill="#E8CF86" transform="translate(0,0)"/>
<path d="M0 0 C49.5 0 99 0 150 0 C150 49.5 150 99 150 150 C100.5 150 51 150 0 150 C0 100.5 0 51 0 0 Z M74 7 C73.78085938 7.639375 73.56171875 8.27875 73.3359375 8.9375 C72 11 72 11 69.6015625 11.6875 C68.61929688 11.790625 67.63703125 11.89375 66.625 12 C50.71761369 14.2046079 34.51938762 21.44743314 24.328125 34.23828125 C12.47169203 49.90990304 7.20418905 66.47853924 9.3515625 86.234375 C9.79424389 89.19058635 10.34723498 92.08347936 11 95 C11.23976563 96.11568359 11.23976563 96.11568359 11.484375 97.25390625 C14.00967491 106.51902685 20.71804746 115.90446125 27 123 C27.66 123 28.32 123 29 123 C29 123.66 29 124.32 29 125 C35.0405131 130.61721957 41.79387215 134.69873157 49.3125 138 C49.96927734 138.29028076 50.62605469 138.58056152 51.30273438 138.87963867 C58.73338896 141.98105593 65.95968467 142.18153068 73.875 142.1875 C74.72191406 142.19974609 75.56882812 142.21199219 76.44140625 142.22460938 C94.17899906 142.26535423 109.01867011 134.70914427 121.75 122.6875 C134.64803022 109.14571782 140.44039928 91.55775208 140.27734375 73.078125 C139.43007866 55.42466131 130.41571562 39.83404978 117.875 27.875 C106.49803452 18.26778471 94.28263476 13.57799088 79.6484375 11.53125 C77 11 77 11 75.125 8.9375 C74.75375 8.298125 74.3825 7.65875 74 7 Z " fill="#FEFCFD" transform="translate(0,0)"/>
<path d="M0 0 C0 16.83 0 33.66 0 51 C-2.64 51.99 -5.28 52.98 -8 54 C-12.10067157 58.01152654 -13.12854043 60.38562128 -15 66 C-31.5 66 -48 66 -65 66 C-65 67.65 -65 69.3 -65 71 C-65.33 71 -65.66 71 -66 71 C-66.84144324 56.04100908 -64.26910154 42.72169468 -56 30 C-55.43667969 29.08734375 -54.87335937 28.1746875 -54.29296875 27.234375 C-44.14163736 11.93257864 -28.46943122 4.17521483 -11 0 C-7.02126073 -0.78121365 -3.93228494 -1.31076165 0 0 Z " fill="#B583E8" transform="translate(75,12)"/>
<path d="M0 0 C8.9758697 4.48793485 13.67699365 16.0090889 17.1875 25.0625 C17.455625 26.031875 17.72375 27.00125 18 28 C18.18433594 28.60585938 18.36867187 29.21171875 18.55859375 29.8359375 C22.24589292 43.51708889 19.71133146 56.95323597 15 70 C9.81500239 69.38346628 5.50785371 67.74881921 0.75 65.7265625 C-0.41450684 65.23994644 -0.41450684 65.23994644 -1.60253906 64.74349976 C-3.23758496 64.05888181 -4.87135513 63.37120998 -6.50390625 62.68066406 C-8.98946508 61.62945549 -11.47868291 60.58735327 -13.96875 59.546875 C-15.56272212 58.87813335 -17.15647943 58.20887942 -18.75 57.5390625 C-19.48766602 57.22957672 -20.22533203 56.92009094 -20.98535156 56.60122681 C-25.06847954 54.87193997 -29.05459504 53.03085998 -33 51 C-32.97679688 50.34773438 -32.95359375 49.69546875 -32.9296875 49.0234375 C-32.91164063 48.14945313 -32.89359375 47.27546875 -32.875 46.375 C-32.84019531 45.08722656 -32.84019531 45.08722656 -32.8046875 43.7734375 C-32.92751348 40.38811657 -32.92751348 40.38811657 -35 35 C-23.45 23.45 -11.9 11.9 0 0 Z " fill="#B4E982" transform="translate(120,32)"/>
<path d="M0 0 C0.33 0 0.66 0 1 0 C1.08636719 0.59167969 1.17273437 1.18335937 1.26171875 1.79296875 C2.27070544 7.46736179 3.60971114 10.05999718 8 14 C9.20250452 17.10634502 8.98626542 18.82439779 7.69238281 21.84716797 C7.38165833 22.58828827 7.07093384 23.32940857 6.75079346 24.09298706 C6.40506287 24.88472321 6.05933228 25.67645935 5.703125 26.4921875 C5.35368835 27.31574738 5.00425171 28.13930725 4.64422607 28.98782349 C3.52340744 31.6215509 2.38673302 34.24810808 1.25 36.875 C0.49899875 38.63629216 -0.25101278 40.39800668 -1 42.16015625 C-6.86248857 55.89631297 -6.86248857 55.89631297 -10 62 C-14.20344771 61.42887939 -16.96817364 60.00402094 -20.5 57.6875 C-21.4178125 57.09324219 -22.335625 56.49898437 -23.28125 55.88671875 C-25.96621958 54.02344245 -28.54404688 52.15785736 -31 50 C-31 49.34 -31 48.68 -31 48 C-31.66 48 -32.32 48 -33 48 C-45.19828855 33.83656477 -50 21.85748759 -50 3 C-33.5 3 -17 3 0 3 C0 2.01 0 1.02 0 0 Z " fill="#B4E982" transform="translate(60,75)"/>
<path d="M0 0 C15.69950424 6.25419397 31.37098928 12.57157886 47 19 C43.82628057 31.91815446 33.59223325 42.44840896 22.75 49.75 C11.39651063 56.60674218 1.1857657 59 -12 59 C-12 42.17 -12 25.34 -12 8 C-9.69 7.01 -7.38 6.02 -5 5 C-2.12314797 2.45911321 -2.12314797 2.45911321 0 0 Z " fill="#B482E8" transform="translate(87,83)"/>
<path d="M0 0 C4.59457298 1.79787638 6.77864953 4.6395713 9 9 C9.81155954 15.39103136 8.77109363 18.80200607 5 24 C1.22987148 26.99676883 0.05308518 27 -5 27 C-5 43.83 -5 60.66 -5 78 C-16.32307692 78 -16.32307692 78 -20.375 77.125 C-21.16648437 76.96257812 -21.95796875 76.80015625 -22.7734375 76.6328125 C-25.03264279 75.99072257 -26.91859475 75.0742913 -29 74 C-26.4679796 65.92918498 -23.26059051 58.17138187 -20 50.375 C-19.46065747 49.07824143 -18.9215932 47.7813671 -18.3828125 46.484375 C-14.28365738 36.62936995 -14.28365738 36.62936995 -13.15771484 34.13116455 C-11.86247506 31.23593941 -11 29.21075402 -11 26 C-12.65385233 24.65080468 -14.321702 23.31866272 -16 22 C-18.73270793 17.58997479 -18.91070895 13.03205283 -18 8 C-13.48774955 0.30425997 -8.5047759 -0.72552591 0 0 Z " fill="#E58470" transform="translate(79,64)"/>
<path d="M0 0 C16 6.66666667 32 13.33333333 48 20 C47.34 22.31 46.68 24.62 46 27 C29.5 27 13 27 -4 27 C-4 28.65 -4 30.3 -4 32 C-4.33 32 -4.66 32 -5 32 C-5.60121501 21.3117331 -4.88849293 9.77698586 0 0 Z " fill="#86E8E6" transform="translate(14,51)"/>
<path d="M0 0 C0 16.83 0 33.66 0 51 C-2.31 51.66 -4.62 52.32 -7 53 C-7.21615967 52.45698242 -7.43231934 51.91396484 -7.6550293 51.35449219 C-13.16225346 37.51677256 -13.16225346 37.51677256 -18.84375 23.75 C-20.54408985 19.70594846 -22.21336881 15.64903454 -23.88671875 11.59375 C-24.85055843 9.34817263 -25.87897273 7.17039069 -27 5 C-24.50261142 4.17865011 -22.00255195 3.36784252 -19.5 2.5625 C-18.80390625 2.33240234 -18.1078125 2.10230469 -17.390625 1.86523438 C-5.65292553 -1.88430851 -5.65292553 -1.88430851 0 0 Z " fill="#E787CF" transform="translate(75,12)"/>
<path d="M0 0 C2.4375 0.75 2.4375 0.75 5 2 C5.8984327 4.22545956 6.11294931 5.54448993 5.53302002 7.88327026 C5.25560974 8.53135651 4.97819946 9.17944275 4.69238281 9.84716797 C4.38165833 10.58828827 4.07093384 11.32940857 3.75079346 12.09298706 C3.40506287 12.88472321 3.05933228 13.67645935 2.703125 14.4921875 C2.35368835 15.31574738 2.00425171 16.13930725 1.64422607 16.98782349 C0.52340744 19.6215509 -0.61326698 22.24810808 -1.75 24.875 C-2.50100125 26.63629216 -3.25101278 28.39800668 -4 30.16015625 C-9.86248857 43.89631297 -9.86248857 43.89631297 -13 50 C-17.20344771 49.42887939 -19.96817364 48.00402094 -23.5 45.6875 C-24.4178125 45.09324219 -25.335625 44.49898437 -26.28125 43.88671875 C-28.96621958 42.02344245 -31.54404688 40.15785736 -34 38 C-34 37.34 -34 36.68 -34 36 C-34.66 35.67 -35.32 35.34 -36 35 C-35.21625 34.7525 -34.4325 34.505 -33.625 34.25 C-30.5144918 32.76880562 -30.38379532 32.02705226 -29 29 C-27.36115725 27.30596635 -25.6889308 25.64410106 -24 24 C-23.08565186 23.08565186 -22.17130371 22.17130371 -21.22924805 21.22924805 C-14.15283203 14.15283203 -7.07641602 7.07641602 0 0 Z " fill="#E8CF86" transform="translate(63,87)"/>
<path d="M0 0 C0.33 0 0.66 0 1 0 C1.43721744 11.85345054 0.05863924 21.76069133 -4 33 C-9.18499761 32.38346628 -13.49214629 30.74881921 -18.25 28.7265625 C-19.02633789 28.40215179 -19.80267578 28.07774109 -20.60253906 27.74349976 C-22.23758496 27.05888181 -23.87135513 26.37120998 -25.50390625 25.68066406 C-27.98946508 24.62945549 -30.47868291 23.58735327 -32.96875 22.546875 C-34.56272212 21.87813335 -36.15647943 21.20887942 -37.75 20.5390625 C-38.48766602 20.22957672 -39.22533203 19.92009094 -39.98535156 19.60122681 C-44.06847954 17.87193997 -48.05459504 16.03085998 -52 14 C-51.67 12.02 -51.34 10.04 -51 8 C-34.17 8 -17.34 8 0 8 C0 5.36 0 2.72 0 0 Z " fill="#86E8E8" transform="translate(139,69)"/>
<path d="M0 0 C2.5733234 6.18898527 5.13567746 12.38242741 7.69042969 18.57910156 C8.5609505 20.68691742 9.43398394 22.79369739 10.30957031 24.89941406 C11.56716192 27.9250483 12.81569175 30.954284 14.0625 33.984375 C14.45622803 34.92617615 14.84995605 35.86797729 15.25561523 36.83831787 C15.61598877 37.71892883 15.9763623 38.59953979 16.34765625 39.50683594 C16.66742432 40.27960876 16.98719238 41.05238159 17.31665039 41.84857178 C18 44 18 44 18 48 C9.62294487 51.38021523 3.23774759 52 -6 52 C-6 35.17 -6 18.34 -6 1 C-2 0 -2 0 0 0 Z " fill="#E782D0" transform="translate(81,90)"/>
<path d="M0 0 C3.23556213 7.54964496 3 14.82994681 3 23 C-13.83 23 -30.66 23 -48 23 C-48 21.35 -48 19.7 -48 18 C-36.28864147 12.84849497 -24.55484058 7.74653125 -12.75 2.8125 C-11.81655762 2.41426025 -10.88311523 2.01602051 -9.92138672 1.60571289 C-9.05529785 1.24727295 -8.18920898 0.88883301 -7.296875 0.51953125 C-6.53729492 0.20089111 -5.77771484 -0.11774902 -4.99511719 -0.44604492 C-3 -1 -3 -1 0 0 Z " fill="#7EE898" transform="translate(136,54)"/>
<path d="M0 0 C0.309375 0.61488281 0.61875 1.22976563 0.9375 1.86328125 C4.07614497 5.11486989 7.66185821 5.37921415 12 6.1875 C13.62520391 6.51330739 15.25021253 6.84009089 16.875 7.16796875 C17.59429687 7.30485107 18.31359375 7.4417334 19.0546875 7.58276367 C21 8 21 8 24 9 C23.40583199 13.52095462 22.21881877 17.30986028 20.453125 21.5078125 C20.07350616 22.4179158 20.07350616 22.4179158 19.68621826 23.34640503 C18.88010672 25.27516682 18.06527595 27.20009669 17.25 29.125 C16.7181609 30.39298224 16.18690631 31.6612098 15.65625 32.9296875 C14.61412604 35.41874132 13.56753994 37.90584461 12.51757812 40.39160156 C10.6423911 44.85029915 8.80348782 49.32361621 6.97167969 53.80029297 C6 56 6 56 5 57 C2.32941149 57.14115161 -0.32432238 57.04247107 -3 57 C-1.02 56.505 -1.02 56.505 1 56 C1 39.17 1 22.34 1 5 C0.34 5 -0.32 5 -1 5 C-0.67 3.35 -0.34 1.7 0 0 Z " fill="#E87D7C" transform="translate(74,7)"/>
<path d="M0 0 C3.04581486 1.36113013 5.13839026 2.89330096 7.48339844 5.25634766 C8.14378113 5.91688141 8.80416382 6.57741516 9.48455811 7.25796509 C10.18574768 7.96947723 10.88693726 8.68098938 11.609375 9.4140625 C12.69958954 10.50852188 12.69958954 10.50852188 13.81182861 11.62509155 C16.12929198 13.9537388 18.4396995 16.28924826 20.75 18.625 C22.32115444 20.20618653 23.89276371 21.78692125 25.46484375 23.3671875 C29.31518653 27.2395669 33.15976117 31.11760171 37 35 C36.34 36.32 35.68 37.64 35 39 C26.81201565 36.85634361 19.10067722 33.6875395 11.33056641 30.38427734 C9.24222114 29.49669385 7.15072866 28.61688991 5.05859375 27.73828125 C-0.70922327 25.30523767 -6.42364151 22.85302063 -12 20 C-11.4492849 15.47746083 -9.67847837 12.60700684 -7.125 8.875 C-6.42632812 7.84117188 -5.72765625 6.80734375 -5.0078125 5.7421875 C-3.43732737 3.59728368 -1.95412551 1.78206415 0 0 Z " fill="#7D97E7" transform="translate(27,32)"/>
<path d="M0 0 C15.69950424 6.25419397 31.37098928 12.57157886 47 19 C45.78024015 24.05508722 44.28773155 27.52506804 41.125 31.75 C40.44695312 32.67296875 39.76890625 33.5959375 39.0703125 34.546875 C37.18405556 36.78191152 35.41505594 38.37552291 33 40 C33 39.34 33 38.68 33 38 C32.34 38 31.68 38 31 38 C31 37.34 31 36.68 31 36 C30.34 36 29.68 36 29 36 C29 35.34 29 34.68 29 34 C28.34 34 27.68 34 27 34 C27 33.34 27 32.68 27 32 C26.34 32 25.68 32 25 32 C25 31.34 25 30.68 25 30 C24.34 30 23.68 30 23 30 C23 29.34 23 28.68 23 28 C22.34 28 21.68 28 21 28 C21 27.34 21 26.68 21 26 C20.34 26 19.68 26 19 26 C19 25.34 19 24.68 19 24 C18.34 24 17.68 24 17 24 C17 23.34 17 22.68 17 22 C16.34 22 15.68 22 15 22 C15 21.34 15 20.68 15 20 C14.34 20 13.68 20 13 20 C13 19.34 13 18.68 13 18 C12.34 18 11.68 18 11 18 C11 17.34 11 16.68 11 16 C10.34 16 9.68 16 9 16 C9 15.34 9 14.68 9 14 C8.34 14 7.68 14 7 14 C7 13.34 7 12.68 7 12 C6.34 12 5.68 12 5 12 C5 11.34 5 10.68 5 10 C4.34 10 3.68 10 3 10 C3 9.34 3 8.68 3 8 C2.34 8 1.68 8 1 8 C1 7.34 1 6.68 1 6 C0.34 6 -0.32 6 -1 6 C-1.625 4.125 -1.625 4.125 -2 2 C-1.34 1.34 -0.68 0.68 0 0 Z " fill="#7D98E7" transform="translate(87,83)"/>
<path d="M0 0 C0.33 0 0.66 0 1 0 C1 2.31 1 4.62 1 7 C-4.43274924 9.77030433 -9.9007573 12.32981161 -15.515625 14.70703125 C-16.29387634 15.03668381 -17.07212769 15.36633636 -17.8739624 15.70597839 C-19.50349546 16.39409552 -21.13373346 17.08054548 -22.76464844 17.76538086 C-24.43084197 18.46737537 -26.09489579 19.17446889 -27.75683594 19.88647461 C-30.17191422 20.92106758 -32.5928258 21.94067363 -35.015625 22.95703125 C-36.12819672 23.43811089 -36.12819672 23.43811089 -37.26324463 23.9289093 C-43.2548409 26.40858442 -43.2548409 26.40858442 -47 25 C-50.79942242 18.23759518 -50 10.49933748 -50 3 C-33.5 3 -17 3 0 3 C0 2.01 0 1.02 0 0 Z " fill="#7DE897" transform="translate(60,75)"/>
<path d="M0 0 C3.8177542 2.96936438 5.01163987 4.78066881 6.1875 9.5625 C6.64537403 14.36568834 5.02609138 16.89431753 2.25 20.75 C-2.20577347 23.72051564 -6.52442606 23.37737491 -11.75 22.75 C-15.28214485 20.73163151 -17.55160052 18.67203467 -18.75 14.75 C-19.61284183 8.17083103 -19.61284183 8.17083103 -17.51171875 4.7109375 C-12.75987804 -1.01957015 -7.28773563 -3.31260711 0 0 Z " fill="#11192B" transform="translate(80.75,66.25)"/>
<path d="M0 0 C0.99 0.99 1.98 1.98 3 3 C2.01 3.33 1.02 3.66 0 4 C-0.73323796 6.01508358 -0.73323796 6.01508358 -1 8 C-1.66 8 -2.32 8 -3 8 C-3.2475 9.093125 -3.495 10.18625 -3.75 11.3125 C-5.02002851 15.05908409 -5.65756352 16.10595266 -9 18 C-9 13.1193006 -7.12982936 10.63551365 -4.5 6.75 C-4.07074219 6.1003125 -3.64148437 5.450625 -3.19921875 4.78125 C-2.14094848 3.18208604 -1.07154069 1.59030246 0 0 Z " fill="#776D51" transform="translate(56,102)"/>
<path d="M0 0 C0.66 0.33 1.32 0.66 2 1 C-0.64 3.64 -3.28 6.28 -6 9 C-6.99 8.34 -7.98 7.68 -9 7 C-8.21625 6.7525 -7.4325 6.505 -6.625 6.25 C-3.61694992 4.8175952 -3.24509643 3.9690761 -2 1 C-1.34 0.67 -0.68 0.34 0 0 Z " fill="#E6D58D" transform="translate(36,115)"/>
<path d="M0 0 C0.99 0 1.98 0 3 0 C4.75390625 2.23046875 4.75390625 2.23046875 6.5625 5.1875 C7.16191406 6.15042969 7.76132813 7.11335938 8.37890625 8.10546875 C9.82970985 10.69593975 10.97757615 13.21758285 12 16 C8.16853404 14.43903239 5.71851946 12.08588695 3 9 C2.3125 7 2.3125 7 2 5 C1.3530635 3.3255761 0.69040574 1.65697379 0 0 Z " fill="#664C8F" transform="translate(91,103)"/>
<path d="M0 0 C1.72945653 0.14235457 3.45855654 0.28904382 5.1875 0.4375 C6.63189453 0.55931641 6.63189453 0.55931641 8.10546875 0.68359375 C10.78649602 0.97666151 13.3662986 1.42703754 16 2 C15.67 3.32 15.34 4.64 15 6 C12.60724825 5.44782652 10.37776099 4.77493483 8.0625 3.9375 C5.16137251 3.04939975 3.0039585 2.82329656 0 3 C0 2.01 0 1.02 0 0 Z " fill="#47848C" transform="translate(26,67)"/>
<path d="M0 0 C-1.25460729 3.76382187 -2.52618612 4.25041838 -5.875 6.25 C-6.75929688 6.79140625 -7.64359375 7.3328125 -8.5546875 7.890625 C-11 9 -11 9 -14 8 C-9.99534768 3.641996 -6.17328196 0 0 0 Z " fill="#5E7D52" transform="translate(115,50)"/>
<path d="M0 0 C1.45823212 -0.0270043 2.91660675 -0.04639787 4.375 -0.0625 C5.18710938 -0.07410156 5.99921875 -0.08570312 6.8359375 -0.09765625 C9 0 9 0 11 1 C10.67 1.99 10.34 2.98 10 4 C6.7 4 3.4 4 0 4 C0 2.68 0 1.36 0 0 Z " fill="#979AA2" transform="translate(69,75)"/>
<path d="M0 0 C0 0.99 0 1.98 0 3 C-4.29 3.66 -8.58 4.32 -13 5 C-13 3.68 -13 2.36 -13 1 C-11.58366664 0.83052421 -10.16691467 0.66454493 -8.75 0.5 C-7.56664063 0.36078125 -7.56664063 0.36078125 -6.359375 0.21875 C-4 0 -4 0 0 0 Z " fill="#447E5F" transform="translate(121,67)"/>
<path d="M0 0 C4.67105792 1.55701931 8.08705685 4.08447373 12 7 C11.01 7.99 10.02 8.98 9 10 C8.67 9.01 8.34 8.02 8 7 C6.67696283 6.6278958 5.34262065 6.29369827 4 6 C3.67 5.34 3.34 4.68 3 4 C0.98330173 2.86649466 0.98330173 2.86649466 -1 2 C-0.67 1.34 -0.34 0.68 0 0 Z " fill="#425485" transform="translate(35,50)"/>
<path d="M0 0 C0.91407022 2.74221066 1.51076205 5.35524518 2.0625 8.1875 C2.23910156 9.08855469 2.41570312 9.98960938 2.59765625 10.91796875 C2.73042969 11.60503906 2.86320312 12.29210937 3 13 C2.01 13 1.02 13 0 13 C-1.29243536 8.8803623 -2.26252625 5.33168317 -2 1 C-1.34 0.67 -0.68 0.34 0 0 Z " fill="#7F4B7D" transform="translate(82,110)"/>
<path d="M0 0 C1.9375 0.3125 1.9375 0.3125 4 1 C4.33 1.99 4.66 2.98 5 4 C7.01508358 4.73323796 7.01508358 4.73323796 9 5 C9 6.32 9 7.64 9 9 C5.66666667 7.33333333 2.33333333 5.66666667 -1 4 C-0.67 2.68 -0.34 1.36 0 0 Z " fill="#46588B" transform="translate(104,95)"/>
<path d="M0 0 C-0.33 1.32 -0.66 2.64 -1 4 C-3.31 4.66 -5.62 5.32 -8 6 C-8 6.66 -8 7.32 -8 8 C-8.99 8 -9.98 8 -11 8 C-9.24437387 3.08424684 -5.22219793 0 0 0 Z " fill="#607F53" transform="translate(46,96)"/>
<path d="M0 0 C1.32 0 2.64 0 4 0 C5.65 3.3 7.3 6.6 9 10 C8.01 10.33 7.02 10.66 6 11 C5.0234375 9.20963542 4.046875 7.41927083 3.0703125 5.62890625 C2.08589976 3.83381685 2.08589976 3.83381685 0 3 C0 2.01 0 1.02 0 0 Z " fill="#604988" transform="translate(47,38)"/>
<path d="M0 0 C0.99 0.33 1.98 0.66 3 1 C2.690625 2.051875 2.38125 3.10375 2.0625 4.1875 C1.24314906 7.12752396 0.54516069 10.00161623 0 13 C-1.32 12.34 -2.64 11.68 -4 11 C-3.34 10.34 -2.68 9.68 -2 9 C-2 8.030625 -2 7.06125 -2 6.0625 C-2 3 -2 3 0 0 Z " fill="#774750" transform="translate(67,111)"/>
<path d="M0 0 C0.66 0 1.32 0 2 0 C2.33 1.65 2.66 3.3 3 5 C3.66 5 4.32 5 5 5 C5 7.64 5 10.28 5 13 C4.01 12.67 3.02 12.34 2 12 C1.34 8.04 0.68 4.08 0 0 Z " fill="#764777" transform="translate(64,31)"/>
<path d="M0 0 C5.445 1.485 5.445 1.485 11 3 C11 3.66 11 4.32 11 5 C7.37 4.67 3.74 4.34 0 4 C0 2.68 0 1.36 0 0 Z " fill="#437C85" transform="translate(109,82)"/>
<path d="M0 0 C-0.33 1.32 -0.66 2.64 -1 4 C-3.64 4.33 -6.28 4.66 -9 5 C-9.33 4.01 -9.66 3.02 -10 2 C-6.49223216 0.39644899 -3.85645121 -0.22036864 0 0 Z " fill="#488664" transform="translate(40,83)"/>
<path d="M0 0 C0.66 0.66 1.32 1.32 2 2 C0.02 4.64 -1.96 7.28 -4 10 C-4.99 9.67 -5.98 9.34 -7 9 C-6.21448343 7.68381002 -5.4213763 6.37214772 -4.625 5.0625 C-4.18414062 4.33160156 -3.74328125 3.60070313 -3.2890625 2.84765625 C-2 1 -2 1 0 0 Z " fill="#70674E" transform="translate(99,38)"/>
<path d="M0 0 C0.99 0.99 1.98 1.98 3 3 C2.01 3.33 1.02 3.66 0 4 C-0.73323796 6.01508358 -0.73323796 6.01508358 -1 8 C-2.32 7.67 -3.64 7.34 -5 7 C-3.35 4.69 -1.7 2.38 0 0 Z " fill="#877B57" transform="translate(56,102)"/>
<path d="M0 0 C0.99 0 1.98 0 3 0 C3 1.98 3 3.96 3 6 C1.68 6 0.36 6 -1 6 C-1 3 -1 3 0 0 Z " fill="#834D55" transform="translate(81,34)"/>
<path d="M0 0 C0.99 0 1.98 0 3 0 C4.42944945 2.35438733 5.08661261 3.48032433 4.625 6.25 C4.41875 6.8275 4.2125 7.405 4 8 C0 2.25 0 2.25 0 0 Z " fill="#56437D" transform="translate(91,103)"/>
<path d="M0 0 C2.97 0.495 2.97 0.495 6 1 C5.67 2.32 5.34 3.64 5 5 C2.525 4.01 2.525 4.01 0 3 C0 2.01 0 1.02 0 0 Z " fill="#417881" transform="translate(36,68)"/>
</svg>
